# xmcd
#
# Track frame offsets:
#	150
#	12117
#	21528
#	39130
#	55150
#	69199
#	90448
#	110740
#	124680
#	139908
#	160859
#	176870
#	191015
#	204444
#	216760
#	237119
#	250464
#	271787
#
# Disc length: 3869 seconds
#
# Revision: 0
# Processed by: cddbd v1.5.1PL2 Copyright (c) Steve Scherf et al.
# Submitted via: audiograbber 1.83.01
#
DISCID=f80f1b12
DTITLE=Видеокараоке - World Hits Collection
DYEAR=2003
DGENRE=Other
TTITLE0=Only You (Elvis Presley)
TTITLE1=Yesterday (The Beatles)
TTITLE2=Let It Be (The Beatles)
TTITLE3=Living Next Door To Alice (Smokie)
TTITLE4=Love Story (Andy Williams)
TTITLE5=Killing Me Softly With His Song (Roberta Flack)
TTITLE6=The House Of The Rising Sun (Animals)
TTITLE7=Venus (Shocking Blue)
TTITLE8=Bahama Mama (Boney M)
TTITLE9=All For Love (Bryan Adams)
TTITLE10=Et Si Tu N'Existas Pas (Joe Dassin)
TTITLE11=Besame Mucho (Spanish)
TTITLE12=Nah Neh Nah (Vaya Con Dios)
TTITLE13=Love Me Tender (Elvis Presley)
TTITLE14=Susanna (Adriano Celentano)
TTITLE15=Ciao Bambino Sorry (Miraille Mathieu)
TTITLE16=Belle (Notre Dam De Paris)
TTITLE17=Cambio Dolor (Natalia Oreiro)
EXTD=
EXTT0=
EXTT1=
EXTT2=
EXTT3=
EXTT4=
EXTT5=
EXTT6=
EXTT7=
EXTT8=
EXTT9=
EXTT10=
EXTT11=
EXTT12=
EXTT13=
EXTT14=
EXTT15=
EXTT16=
EXTT17=
PLAYORDER=
